<svg width="1144" height="675" viewBox="0 0 1144 675" fill="none" xmlns="http://www.w3.org/2000/svg">
<g clip-path="url(#clip0)">
<path opacity="0.1" d="M1144 433.252C1144.01 451.589 1141.71 469.84 1137.15 487.486C1132.74 504.498 1126.26 520.784 1117.88 535.904C1117.88 590.685 1084.06 638.031 1034.97 660.556C1014.46 669.873 992.452 674.631 970.24 674.552H217.17C176.92 674.552 139.62 662.677 109.03 642.448C100.275 636.686 91.9705 630.143 84.2 622.887C50.2 590.936 29.12 546.783 29.12 498.016C10.0381 465.888 -0.0799637 428.381 -1.81681e-05 390.072C-1.81681e-05 309.858 43.39 240.884 105.55 210.432C113.804 206.39 122.333 203.056 131.06 200.459C134.147 199.541 137.267 198.717 140.42 197.988C148.826 196.031 157.352 194.752 165.93 194.161C169.03 193.95 172.147 193.83 175.28 193.8H177C180.46 193.8 183.89 193.932 187.3 194.15L188.42 192.073C189.793 189.565 191.2 187.083 192.64 184.627C195.24 180.151 197.967 175.741 200.82 171.396C203.807 166.811 206.923 162.299 210.17 157.859L211 156.766C212.84 154.258 214.72 151.78 216.64 149.33C222.64 141.684 228.973 134.266 235.64 127.079C307.75 49.7949 420.72 0.0435791 547.72 0.0435791C646.54 0.0435791 736.87 30.1677 806.06 79.9409C832.272 63.7215 861.882 55.211 892 55.2402C989.74 55.2402 1069 143.12 1069 251.523C1068.99 258.382 1068.65 265.236 1068 272.058C1091.56 290.294 1110.76 314.459 1123.99 342.513C1137.22 370.568 1144.08 401.689 1144 433.252V433.252Z" fill="#6C63FF"/>
<path opacity="0.2" d="M235.66 127.035V149.287H216.66C222.613 141.647 228.947 134.23 235.66 127.035Z" fill="#6C63FF"/>
<path opacity="0.2" d="M270.53 121.393H245.02V149.287H270.53V121.393Z" fill="#6C63FF"/>
<path opacity="0.2" d="M305.39 121.393H279.88V149.287H305.39V121.393Z" fill="#6C63FF"/>
<path opacity="0.2" d="M340.26 121.393H314.75V149.287H340.26V121.393Z" fill="#6C63FF"/>
<path opacity="0.2" d="M375.12 121.393H349.61V149.287H375.12V121.393Z" fill="#6C63FF"/>
<path opacity="0.2" d="M409.99 121.393H384.48V149.287H409.99V121.393Z" fill="#6C63FF"/>
<path d="M444.86 121.393H419.35V149.287H444.86V121.393Z" fill="#6C63FF"/>
<path opacity="0.2" d="M479.72 121.393H454.21V149.287H479.72V121.393Z" fill="#6C63FF"/>
<path opacity="0.2" d="M514.59 121.393H489.08V149.287H514.59V121.393Z" fill="#6C63FF"/>
<path opacity="0.2" d="M549.45 121.393H523.94V149.287H549.45V121.393Z" fill="#6C63FF"/>
<path d="M584.32 121.393H558.81V149.287H584.32V121.393Z" fill="#6C63FF"/>
<path opacity="0.2" d="M619.19 121.393H593.68V149.287H619.19V121.393Z" fill="#6C63FF"/>
<path opacity="0.2" d="M654.05 121.393H628.54V149.287H654.05V121.393Z" fill="#6C63FF"/>
<path opacity="0.2" d="M688.92 121.393H663.41V149.287H688.92V121.393Z" fill="#6C63FF"/>
<path opacity="0.2" d="M723.79 121.393H698.28V149.287H723.79V121.393Z" fill="#6C63FF"/>
<path opacity="0.2" d="M758.65 121.393H733.14V149.287H758.65V121.393Z" fill="#6C63FF"/>
<path opacity="0.2" d="M793.52 121.393H768.01V149.287H793.52V121.393Z" fill="#6C63FF"/>
<path d="M828.38 121.393H802.87V149.287H828.38V121.393Z" fill="#6C63FF"/>
<path d="M863.25 121.393H837.74V149.287H863.25V121.393Z" fill="#6C63FF"/>
<path opacity="0.2" d="M898.12 121.393H872.61V149.287H898.12V121.393Z" fill="#6C63FF"/>
<path opacity="0.2" d="M932.98 121.393H907.47V149.287H932.98V121.393Z" fill="#6C63FF"/>
<path d="M967.85 121.393H942.34V149.287H967.85V121.393Z" fill="#6C63FF"/>
<path d="M1002.71 121.393H977.2V149.287H1002.71V121.393Z" fill="#6C63FF"/>
<path d="M200.8 171.385V184.616H192.62C195.22 180.111 197.947 175.701 200.8 171.385Z" fill="#6C63FF"/>
<path opacity="0.2" d="M235.66 156.722H210.15V184.616H235.66V156.722Z" fill="#6C63FF"/>
<path d="M270.53 156.722H245.02V184.616H270.53V156.722Z" fill="#6C63FF"/>
<path opacity="0.2" d="M305.39 156.722H279.88V184.616H305.39V156.722Z" fill="#6C63FF"/>
<path opacity="0.7" d="M340.26 156.722H314.75V184.616H340.26V156.722Z" fill="#6C63FF"/>
<path opacity="0.2" d="M375.12 156.722H349.61V184.616H375.12V156.722Z" fill="#6C63FF"/>
<path opacity="0.4" d="M409.99 156.722H384.48V184.616H409.99V156.722Z" fill="#6C63FF"/>
<path d="M444.86 156.722H419.35V184.616H444.86V156.722Z" fill="#6C63FF"/>
<path opacity="0.4" d="M479.72 156.722H454.21V184.616H479.72V156.722Z" fill="#6C63FF"/>
<path opacity="0.2" d="M514.59 156.722H489.08V184.616H514.59V156.722Z" fill="#6C63FF"/>
<path opacity="0.4" d="M549.45 156.722H523.94V184.616H549.45V156.722Z" fill="#6C63FF"/>
<path d="M584.32 156.722H558.81V184.616H584.32V156.722Z" fill="#6C63FF"/>
<path opacity="0.4" d="M619.19 156.722H593.68V184.616H619.19V156.722Z" fill="#6C63FF"/>
<path opacity="0.4" d="M654.05 156.722H628.54V184.616H654.05V156.722Z" fill="#6C63FF"/>
<path opacity="0.2" d="M688.92 156.722H663.41V184.616H688.92V156.722Z" fill="#6C63FF"/>
<path opacity="0.4" d="M723.79 156.722H698.28V184.616H723.79V156.722Z" fill="#6C63FF"/>
<path opacity="0.4" d="M758.65 156.722H733.14V184.616H758.65V156.722Z" fill="#6C63FF"/>
<path opacity="0.2" d="M793.52 156.722H768.01V184.616H793.52V156.722Z" fill="#6C63FF"/>
<path opacity="0.2" d="M828.38 156.722H802.87V184.616H828.38V156.722Z" fill="#6C63FF"/>
<path opacity="0.4" d="M863.25 156.722H837.74V184.616H863.25V156.722Z" fill="#6C63FF"/>
<path opacity="0.2" d="M898.12 156.722H872.61V184.616H898.12V156.722Z" fill="#6C63FF"/>
<path d="M932.98 156.722H907.47V184.616H932.98V156.722Z" fill="#6C63FF"/>
<path d="M967.85 156.722H942.34V184.616H967.85V156.722Z" fill="#6C63FF"/>
<path d="M1002.71 156.722H977.2V184.616H1002.71V156.722Z" fill="#6C63FF"/>
<path opacity="0.2" d="M131.06 200.46V219.956H105.55V210.432C113.804 206.39 122.333 203.056 131.06 200.46V200.46Z" fill="#6C63FF"/>
<path opacity="0.2" d="M165.93 194.161V219.956H140.42V197.989L165.93 194.161Z" fill="#6C63FF"/>
<path d="M200.79 192.062H175.28V219.956H200.79V192.062Z" fill="#6C63FF"/>
<path opacity="0.7" d="M235.66 192.062H210.15V219.956H235.66V192.062Z" fill="#6C63FF"/>
<path d="M270.53 192.062H245.02V219.956H270.53V192.062Z" fill="#6C63FF"/>
<path opacity="0.7" d="M305.39 192.062H279.88V219.956H305.39V192.062Z" fill="#6C63FF"/>
<path opacity="0.7" d="M340.26 192.062H314.75V219.956H340.26V192.062Z" fill="#6C63FF"/>
<path opacity="0.2" d="M375.12 192.062H349.61V219.956H375.12V192.062Z" fill="#6C63FF"/>
<path opacity="0.4" d="M409.99 192.062H384.48V219.956H409.99V192.062Z" fill="#6C63FF"/>
<path opacity="0.4" d="M444.86 192.062H419.35V219.956H444.86V192.062Z" fill="#6C63FF"/>
<path d="M479.72 192.062H454.21V219.956H479.72V192.062Z" fill="#6C63FF"/>
<path opacity="0.2" d="M514.59 192.062H489.08V219.956H514.59V192.062Z" fill="#6C63FF"/>
<path opacity="0.4" d="M549.45 192.062H523.94V219.956H549.45V192.062Z" fill="#6C63FF"/>
<path d="M584.32 192.062H558.81V219.956H584.32V192.062Z" fill="#6C63FF"/>
<path opacity="0.2" d="M619.19 192.062H593.68V219.956H619.19V192.062Z" fill="#6C63FF"/>
<path opacity="0.4" d="M654.05 192.062H628.54V219.956H654.05V192.062Z" fill="#6C63FF"/>
<path opacity="0.2" d="M688.92 192.062H663.41V219.956H688.92V192.062Z" fill="#6C63FF"/>
<path d="M723.79 192.062H698.28V219.956H723.79V192.062Z" fill="#6C63FF"/>
<path opacity="0.2" d="M758.65 192.062H733.14V219.956H758.65V192.062Z" fill="#6C63FF"/>
<path opacity="0.7" d="M793.52 192.062H768.01V219.956H793.52V192.062Z" fill="#6C63FF"/>
<path opacity="0.7" d="M828.38 192.062H802.87V219.956H828.38V192.062Z" fill="#6C63FF"/>
<path opacity="0.4" d="M863.25 192.062H837.74V219.956H863.25V192.062Z" fill="#6C63FF"/>
<path opacity="0.2" d="M898.12 192.062H872.61V219.956H898.12V192.062Z" fill="#6C63FF"/>
<path d="M932.98 192.062H907.47V219.956H932.98V192.062Z" fill="#6C63FF"/>
<path d="M967.85 192.062H942.34V219.956H967.85V192.062Z" fill="#6C63FF"/>
<path d="M1002.71 192.062H977.2V219.956H1002.71V192.062Z" fill="#6C63FF"/>
<path opacity="0.2" d="M131.06 227.391H105.55V255.285H131.06V227.391Z" fill="#6C63FF"/>
<path opacity="0.2" d="M165.93 227.391H140.42V255.285H165.93V227.391Z" fill="#6C63FF"/>
<path opacity="0.2" d="M200.79 227.391H175.28V255.285H200.79V227.391Z" fill="#6C63FF"/>
<path opacity="0.2" d="M235.66 227.391H210.15V255.285H235.66V227.391Z" fill="#6C63FF"/>
<path d="M270.53 227.391H245.02V255.285H270.53V227.391Z" fill="#6C63FF"/>
<path opacity="0.7" d="M305.39 227.391H279.88V255.285H305.39V227.391Z" fill="#6C63FF"/>
<path opacity="0.7" d="M340.26 227.391H314.75V255.285H340.26V227.391Z" fill="#6C63FF"/>
<path opacity="0.2" d="M375.12 227.391H349.61V255.285H375.12V227.391Z" fill="#6C63FF"/>
<path opacity="0.2" d="M409.99 227.391H384.48V255.285H409.99V227.391Z" fill="#6C63FF"/>
<path opacity="0.4" d="M444.86 227.391H419.35V255.285H444.86V227.391Z" fill="#6C63FF"/>
<path opacity="0.4" d="M479.72 227.391H454.21V255.285H479.72V227.391Z" fill="#6C63FF"/>
<path d="M514.59 227.391H489.08V255.285H514.59V227.391Z" fill="#6C63FF"/>
<path opacity="0.2" d="M549.45 227.391H523.94V255.285H549.45V227.391Z" fill="#6C63FF"/>
<path opacity="0.4" d="M584.32 227.391H558.81V255.285H584.32V227.391Z" fill="#6C63FF"/>
<path opacity="0.4" d="M619.19 227.391H593.68V255.285H619.19V227.391Z" fill="#6C63FF"/>
<path opacity="0.4" d="M654.05 227.391H628.54V255.285H654.05V227.391Z" fill="#6C63FF"/>
<path opacity="0.4" d="M688.92 227.391H663.41V255.285H688.92V227.391Z" fill="#6C63FF"/>
<path opacity="0.2" d="M723.79 227.391H698.28V255.285H723.79V227.391Z" fill="#6C63FF"/>
<path opacity="0.2" d="M758.65 227.391H733.14V255.285H758.65V227.391Z" fill="#6C63FF"/>
<path opacity="0.2" d="M793.52 227.391H768.01V255.285H793.52V227.391Z" fill="#6C63FF"/>
<path opacity="0.2" d="M828.38 227.391H802.87V255.285H828.38V227.391Z" fill="#6C63FF"/>
<path opacity="0.7" d="M863.25 227.391H837.74V255.285H863.25V227.391Z" fill="#6C63FF"/>
<path opacity="0.7" d="M898.12 227.391H872.61V255.285H898.12V227.391Z" fill="#6C63FF"/>
<path opacity="0.4" d="M932.98 227.391H907.47V255.285H932.98V227.391Z" fill="#6C63FF"/>
<path opacity="0.2" d="M967.85 227.391H942.34V255.285H967.85V227.391Z" fill="#6C63FF"/>
<path d="M1002.71 227.391H977.2V255.285H1002.71V227.391Z" fill="#6C63FF"/>
<path opacity="0.2" d="M131.06 262.731H105.55V290.624H131.06V262.731Z" fill="#6C63FF"/>
<path opacity="0.2" d="M165.93 262.731H140.42V290.624H165.93V262.731Z" fill="#6C63FF"/>
<path opacity="0.4" d="M200.79 262.731H175.28V290.624H200.79V262.731Z" fill="#6C63FF"/>
<path opacity="0.2" d="M235.66 262.731H210.15V290.624H235.66V262.731Z" fill="#6C63FF"/>
<path opacity="0.2" d="M270.53 262.731H245.02V290.624H270.53V262.731Z" fill="#6C63FF"/>
<path opacity="0.7" d="M305.39 262.731H279.88V290.624H305.39V262.731Z" fill="#6C63FF"/>
<path opacity="0.7" d="M340.26 262.731H314.75V290.624H340.26V262.731Z" fill="#6C63FF"/>
<path opacity="0.2" d="M375.12 262.731H349.61V290.624H375.12V262.731Z" fill="#6C63FF"/>
<path opacity="0.2" d="M409.99 262.731H384.48V290.624H409.99V262.731Z" fill="#6C63FF"/>
<path opacity="0.4" d="M444.86 262.731H419.35V290.624H444.86V262.731Z" fill="#6C63FF"/>
<path d="M479.72 262.731H454.21V290.624H479.72V262.731Z" fill="#6C63FF"/>
<path opacity="0.2" d="M514.59 262.731H489.08V290.624H514.59V262.731Z" fill="#6C63FF"/>
<path d="M549.45 262.731H523.94V290.624H549.45V262.731Z" fill="#6C63FF"/>
<path d="M584.32 262.731H558.81V290.624H584.32V262.731Z" fill="#6C63FF"/>
<path d="M619.19 262.731H593.68V290.624H619.19V262.731Z" fill="#6C63FF"/>
<path opacity="0.2" d="M654.05 262.731H628.54V290.624H654.05V262.731Z" fill="#6C63FF"/>
<path d="M688.92 262.731H663.41V290.624H688.92V262.731Z" fill="#6C63FF"/>
<path opacity="0.2" d="M723.79 262.731H698.28V290.624H723.79V262.731Z" fill="#6C63FF"/>
<path opacity="0.2" d="M758.65 262.731H733.14V290.624H758.65V262.731Z" fill="#6C63FF"/>
<path opacity="0.2" d="M793.52 262.731H768.01V290.624H793.52V262.731Z" fill="#6C63FF"/>
<path opacity="0.2" d="M828.38 262.731H802.87V290.624H828.38V262.731Z" fill="#6C63FF"/>
<path opacity="0.2" d="M863.25 262.731H837.74V290.624H863.25V262.731Z" fill="#6C63FF"/>
<path opacity="0.7" d="M898.12 262.731H872.61V290.624H898.12V262.731Z" fill="#6C63FF"/>
<path opacity="0.2" d="M932.98 262.731H907.47V290.624H932.98V262.731Z" fill="#6C63FF"/>
<path opacity="0.2" d="M967.85 262.731H942.34V290.624H967.85V262.731Z" fill="#6C63FF"/>
<path d="M1002.71 262.731H977.2V290.624H1002.71V262.731Z" fill="#6C63FF"/>
<path opacity="0.2" d="M131.06 298.06H105.55V325.953H131.06V298.06Z" fill="#6C63FF"/>
<path opacity="0.2" d="M165.93 298.06H140.42V325.953H165.93V298.06Z" fill="#6C63FF"/>
<path opacity="0.2" d="M200.79 298.06H175.28V325.953H200.79V298.06Z" fill="#6C63FF"/>
<path opacity="0.4" d="M235.66 298.06H210.15V325.953H235.66V298.06Z" fill="#6C63FF"/>
<path opacity="0.2" d="M270.53 298.06H245.02V325.953H270.53V298.06Z" fill="#6C63FF"/>
<path opacity="0.2" d="M305.39 298.06H279.88V325.953H305.39V298.06Z" fill="#6C63FF"/>
<path opacity="0.7" d="M340.26 298.06H314.75V325.953H340.26V298.06Z" fill="#6C63FF"/>
<path opacity="0.2" d="M375.12 298.06H349.61V325.953H375.12V298.06Z" fill="#6C63FF"/>
<path opacity="0.2" d="M409.99 298.06H384.48V325.953H409.99V298.06Z" fill="#6C63FF"/>
<path opacity="0.2" d="M444.86 298.06H419.35V325.953H444.86V298.06Z" fill="#6C63FF"/>
<path d="M479.72 298.06H454.21V325.953H479.72V298.06Z" fill="#6C63FF"/>
<path opacity="0.2" d="M514.59 298.06H489.08V325.953H514.59V298.06Z" fill="#6C63FF"/>
<path d="M549.45 298.06H523.94V325.953H549.45V298.06Z" fill="#6C63FF"/>
<path d="M584.32 298.06H558.81V325.953H584.32V298.06Z" fill="#6C63FF"/>
<path opacity="0.2" d="M619.19 298.06H593.68V325.953H619.19V298.06Z" fill="#6C63FF"/>
<path opacity="0.2" d="M654.05 298.06H628.54V325.953H654.05V298.06Z" fill="#6C63FF"/>
<path opacity="0.2" d="M688.92 298.06H663.41V325.953H688.92V298.06Z" fill="#6C63FF"/>
<path opacity="0.2" d="M723.79 298.06H698.28V325.953H723.79V298.06Z" fill="#6C63FF"/>
<path opacity="0.2" d="M758.65 298.06H733.14V325.953H758.65V298.06Z" fill="#6C63FF"/>
<path opacity="0.2" d="M793.52 298.06H768.01V325.953H793.52V298.06Z" fill="#6C63FF"/>
<path opacity="0.2" d="M828.38 298.06H802.87V325.953H828.38V298.06Z" fill="#6C63FF"/>
<path opacity="0.2" d="M863.25 298.06H837.74V325.953H863.25V298.06Z" fill="#6C63FF"/>
<path opacity="0.2" d="M898.12 298.06H872.61V325.953H898.12V298.06Z" fill="#6C63FF"/>
<path opacity="0.2" d="M932.98 298.06H907.47V325.953H932.98V298.06Z" fill="#6C63FF"/>
<path opacity="0.4" d="M967.85 298.06H942.34V325.953H967.85V298.06Z" fill="#6C63FF"/>
<path d="M1002.71 298.06H977.2V325.953H1002.71V298.06Z" fill="#6C63FF"/>
<path opacity="0.7" d="M131.06 333.4H105.55V361.293H131.06V333.4Z" fill="#6C63FF"/>
<path opacity="0.7" d="M165.93 333.4H140.42V361.293H165.93V333.4Z" fill="#6C63FF"/>
<path opacity="0.7" d="M200.79 333.4H175.28V361.293H200.79V333.4Z" fill="#6C63FF"/>
<path opacity="0.7" d="M235.66 333.4H210.15V361.293H235.66V333.4Z" fill="#6C63FF"/>
<path opacity="0.7" d="M270.53 333.4H245.02V361.293H270.53V333.4Z" fill="#6C63FF"/>
<path opacity="0.2" d="M305.39 333.4H279.88V361.293H305.39V333.4Z" fill="#6C63FF"/>
<path opacity="0.2" d="M340.26 333.4H314.75V361.293H340.26V333.4Z" fill="#6C63FF"/>
<path opacity="0.2" d="M375.12 333.4H349.61V361.293H375.12V333.4Z" fill="#6C63FF"/>
<path opacity="0.2" d="M409.99 333.4H384.48V361.293H409.99V333.4Z" fill="#6C63FF"/>
<path opacity="0.2" d="M444.86 333.4H419.35V361.293H444.86V333.4Z" fill="#6C63FF"/>
<path opacity="0.2" d="M479.72 333.4H454.21V361.293H479.72V333.4Z" fill="#6C63FF"/>
<path d="M514.59 333.4H489.08V361.293H514.59V333.4Z" fill="#6C63FF"/>
<path opacity="0.2" d="M549.45 333.4H523.94V361.293H549.45V333.4Z" fill="#6C63FF"/>
<path opacity="0.2" d="M584.32 333.4H558.81V361.293H584.32V333.4Z" fill="#6C63FF"/>
<path opacity="0.2" d="M619.19 333.4H593.68V361.293H619.19V333.4Z" fill="#6C63FF"/>
<path d="M654.05 333.4H628.54V361.293H654.05V333.4Z" fill="#6C63FF"/>
<path opacity="0.2" d="M688.92 333.4H663.41V361.293H688.92V333.4Z" fill="#6C63FF"/>
<path opacity="0.2" d="M723.79 333.4H698.28V361.293H723.79V333.4Z" fill="#6C63FF"/>
<path opacity="0.2" d="M758.65 333.4H733.14V361.293H758.65V333.4Z" fill="#6C63FF"/>
<path opacity="0.2" d="M793.52 333.4H768.01V361.293H793.52V333.4Z" fill="#6C63FF"/>
<path opacity="0.2" d="M828.38 333.4H802.87V361.293H828.38V333.4Z" fill="#6C63FF"/>
<path opacity="0.2" d="M863.25 333.4H837.74V361.293H863.25V333.4Z" fill="#6C63FF"/>
<path opacity="0.2" d="M898.12 333.4H872.61V361.293H898.12V333.4Z" fill="#6C63FF"/>
<path opacity="0.2" d="M932.98 333.4H907.47V361.293H932.98V333.4Z" fill="#6C63FF"/>
<path opacity="0.2" d="M967.85 333.4H942.34V361.293H967.85V333.4Z" fill="#6C63FF"/>
<path d="M1002.71 333.4H977.2V361.293H1002.71V333.4Z" fill="#6C63FF"/>
<path d="M734.52 436.019C753.778 436.019 769.39 418.948 769.39 397.89C769.39 376.833 753.778 359.762 734.52 359.762C715.262 359.762 699.65 376.833 699.65 397.89C699.65 418.948 715.262 436.019 734.52 436.019Z" fill="#767D9F"/>
<path d="M732.71 349.386C736.19 365.991 739.143 382.721 741.57 399.574C742.3 404.582 742.95 409.864 741.29 414.598C739.9 418.545 737.07 421.629 734.85 425.084C732.63 428.539 730.95 432.968 732.3 436.926C733.65 440.884 737.59 443.049 741.35 444.165C752.11 447.336 763.58 445.029 774.29 441.595C779.139 440.23 783.788 438.125 788.1 435.341C792.64 432.192 796.36 427.818 799.78 423.313C815.39 402.614 825.61 377.771 835.23 353.081C829.049 353.697 822.822 352.695 817.065 350.158C811.307 347.622 806.185 343.624 802.12 338.495C798.18 333.432 795.29 326.38 797.51 320.191C791 324.094 783.27 324.357 776.26 327.025C771.913 328.84 767.728 331.091 763.76 333.75C758.973 336.775 754.213 339.858 749.48 343C744.07 346.565 739 349.736 732.71 349.386Z" fill="#C09DA4"/>
<path d="M805.64 378.012C799.53 391.013 791.58 403.511 780.23 411.252C768.88 418.994 753.6 421.093 742.23 413.439C736.63 409.7 732.39 404.014 727.5 399.224C722.61 394.435 716.5 390.335 709.93 390.958C702.69 391.647 697.02 397.825 692.17 403.74C684.81 412.728 677.7 422.099 672.49 432.738C662.49 453.185 660.12 477.088 660.56 500.269C661 523.45 664.07 546.51 664.14 569.691C664.24 598.208 659.82 626.495 655.35 654.586C696.45 649.053 737.6 661.146 778.79 665.728C805.15 668.691 831.71 668.625 858.21 668.549C862.87 668.549 867.83 668.418 871.71 665.596C874.082 663.705 876 661.214 877.3 658.336C880.96 650.955 882.43 642.536 883.45 634.215C886.04 613.199 886.12 591.921 886.19 570.708C886.37 519.317 886.54 467.739 880.57 416.752C879.1 404.21 877.22 391.603 872.82 379.871C868.42 368.138 861.24 357.346 851.2 351.059C844.75 347.013 829.8 339.971 822.2 344.05C813.67 348.598 809.73 369.308 805.64 378.012Z" fill="#767D9F"/>
<path d="M808.68 523.133C807.13 491.423 800.82 457.581 814.25 429.436C817.55 422.526 805.71 413.898 809.37 407.207C813.837 399.048 817.224 390.238 819.43 381.041C820.19 377.881 820.8 374.535 820.08 371.364C818.75 365.579 813.52 362.135 809.08 358.614C804.18 354.722 801.66 342.858 800.08 336.439C798.5 330.021 812.65 337.751 818.34 335.466C826.24 332.306 836.28 334.296 844.16 337.5C848.56 339.271 853.34 339.424 858.03 339.556C867.14 339.818 876.28 340.07 885.32 338.845C889.38 338.287 893.45 337.445 897.53 337.697C907.94 338.342 916.99 346.127 923.15 355.334C929.31 364.541 933.23 375.267 938.28 385.239C942.49 393.55 947.51 401.4 951.1 410.049C954.28 417.704 956.29 425.926 958.28 434.105L963.41 455.088C964.307 458.09 964.733 461.236 964.67 464.393C964.41 467.75 963.05 470.877 961.67 473.862C956.452 484.926 950.195 495.367 943 505.014C932.21 519.481 919.11 532.525 912.7 549.845C910.2 556.592 908.81 563.765 907.54 570.916C902.42 599.517 898.781 628.411 896.64 657.461C884.955 651.549 872.707 647.071 860.12 644.11C853.846 642.643 847.503 641.548 841.12 640.83C835.53 640.196 828.32 641.399 823 639.737C814.1 636.97 813.12 620.514 811.77 611.898C809.61 598.175 809.18 584.212 809.1 570.347C809 554.58 809.45 538.845 808.68 523.133Z" fill="#4C4981"/>
<path d="M613.23 463.836C617.44 490.078 622.08 516.397 631.23 541.054C631 541.295 630.77 541.513 630.54 541.732C629.73 542.486 628.89 543.197 628.01 543.919C625.96 545.493 623.71 546.827 622.01 548.883C621.366 549.67 620.858 550.577 620.51 551.562C620.196 552.331 620.034 553.164 620.034 554.006C620.034 554.848 620.196 555.681 620.51 556.45C615.74 558.757 610.2 558.046 604.85 557.827C600.24 557.641 595.77 557.827 592.07 560.594C586.93 564.465 585.38 571.9 584.55 578.657C584.243 581.121 583.98 583.589 583.76 586.06C583.547 588.356 583.373 590.66 583.24 592.97C582.787 600.615 582.723 608.281 583.05 615.933C583.103 617.332 583.173 618.732 583.26 620.131C566.92 619.705 552.03 610.389 537.94 601.335C534.72 599.269 531.4 597.093 529.31 593.681C527.384 590.331 526.569 586.359 527 582.43C527 581.872 527.09 581.336 527.16 580.768C527.608 577.523 528.376 574.341 529.45 571.277C533.858 558.225 540.356 546.137 548.64 535.576C552.22 531.005 556.25 526.533 557.92 520.793C558.65 518.289 558.92 515.632 559.66 513.139C562.98 502.336 574.96 497.229 579.06 486.743C580.06 484.239 580.52 481.495 581.76 479.089C582.876 477.09 584.317 475.33 586.01 473.895C586.74 473.228 587.5 472.583 588.25 471.938C595.277 465.917 602.047 459.557 608.56 452.858C609.773 451.611 610.973 450.35 612.16 449.074C612.002 454.023 612.361 458.976 613.23 463.836V463.836Z" fill="#4C4981"/>
<path d="M714 386.223C712.56 387.885 711 389.449 709.47 391.002L709.06 391.406L707.44 393.047C704.5 395.821 701.955 399.061 699.89 402.658L699.72 402.964C694.62 412.947 696.51 425.237 697.93 436.576C699.691 450.706 700.483 464.961 700.3 479.22C700.04 498.902 697.92 518.453 697.88 538.113C697.88 542.574 697.97 547.024 698.15 551.485C698.44 558.735 698.94 565.973 699.54 573.212C700.19 581.15 700.97 589.078 701.7 597.005C702.28 603.139 702.83 609.263 703.29 615.386C703.52 618.557 703.74 621.717 703.92 624.888C704.13 628.605 704.3 632.334 704.4 636.052C704.47 638.414 704.51 640.765 704.51 643.126C704.51 644.471 704.51 645.805 704.51 647.139C704.51 649.698 704.447 652.249 704.32 654.793C704.187 658.066 703.983 661.347 703.71 664.634C703.4 668.21 702.85 672.113 700.55 674.628C700.41 674.781 700.26 674.923 700.11 675.066L696.87 674.628C674.535 671.704 651.986 671.265 629.57 673.316C630.06 669.62 630.51 665.935 630.95 662.229C631.15 660.479 631.35 658.719 631.54 656.958C631.76 654.946 631.97 652.934 632.17 650.923C632.4 648.736 632.61 646.549 632.81 644.362C633.33 638.727 633.787 633.089 634.18 627.446C634.76 619.216 635.2 610.972 635.5 602.713C635.647 598.769 635.76 594.822 635.84 590.871C635.953 585.972 636.007 581.07 636 576.164C636 571.397 635.963 566.622 635.89 561.84C635.89 560.266 635.83 558.691 635.71 557.128C635.624 555.72 635.447 554.32 635.18 552.94C634.437 549.756 633.433 546.653 632.18 543.667C631.96 543.099 631.75 542.574 631.54 541.973C631.42 541.677 631.31 541.371 631.2 541.076C636.96 535.467 641.06 527.955 645 520.563C651.39 508.656 657.93 496.223 659 482.468C660.07 468.712 653.82 453.262 641.8 449.063C638.53 447.97 635.07 447.664 631.7 447.019C628.52 446.406 621.89 445.018 618.21 442.524C616.21 444.77 614.21 446.975 612.21 449.14C612.331 445.836 613.07 442.595 614.38 439.616L615.8 439.693C615.684 439.342 615.63 438.971 615.64 438.599C615.64 437.429 616.38 436.106 617.96 434.641C622.67 430.267 630.08 429.294 633.05 423.378C634.29 420.918 634.5 417.988 635.5 415.407C638.37 408.048 646.61 405.337 651.57 399.454C656.53 393.571 657.77 385.239 661.78 378.679C664.775 373.888 668.93 370.102 673.78 367.744C674.18 367.537 674.59 367.329 675 367.143C683.3 363.261 693.16 362.376 701.76 362.397C705.1 362.397 713.76 362.507 718 364.355C718.688 364.623 719.317 365.044 719.85 365.59C724.37 370.97 717.34 382.331 714 386.223Z" fill="#4C4981"/>
<path d="M614.72 438.851C622.445 436.308 630.555 435.469 638.579 436.383C646.603 437.297 654.38 439.946 661.46 444.176C668.66 448.549 675.12 454.651 679.08 462.523C685.03 474.333 684.77 488.569 684.35 502.051C684.14 508.798 683.87 515.785 681.15 521.842C678 528.851 672.06 533.662 666 537.599C662.204 540.247 658.044 542.215 653.68 543.427C646.96 545.023 639.98 543.667 633.21 542.333C625.85 540.846 617.95 539.053 612.84 533.061C609.84 529.584 608.2 525.068 606.58 520.65C604.253 514.272 601.92 507.901 599.58 501.537C595.53 490.483 594.16 481.287 599.51 470.517C601.94 465.607 604.91 461.015 607.31 456.072C608.51 453.557 612.81 439.496 614.72 438.851Z" fill="#4C4981"/>
<path d="M1035 627.873V660.567C1014.49 669.884 992.482 674.642 970.27 674.563H700.58C700.44 674.716 700.29 674.858 700.14 675L696.9 674.563H217.17C176.92 674.563 139.62 662.688 109.03 642.459V592.544L339.75 563.426H339.93L474.29 575.869L509.06 579.149L527.12 580.822L564.5 584.289L583.73 586.071L611.73 588.673L615.67 589.034L635.85 590.904L663.23 593.364L701.73 596.929L765.91 602.888L811.06 607.076L885.2 613.953L899.3 615.255L900.82 615.397L902.14 615.517L920.76 617.245L941.2 619.147L943.57 619.366L1035 627.873Z" fill="#504F60"/>
<path d="M764 626.67L474.86 572.709L463.65 634.696L596.19 652.049L637 657.636L749.26 633.46L764 626.67Z" fill="#9C9CA1"/>
<path d="M614.33 654.531L759.19 624.757C759.915 624.605 760.661 624.631 761.376 624.832C762.09 625.033 762.756 625.404 763.323 625.919C763.891 626.435 764.348 627.081 764.66 627.812C764.972 628.543 765.133 629.34 765.13 630.147V630.147C765.133 631.427 764.726 632.668 763.978 633.653C763.231 634.638 762.191 635.305 761.04 635.538L619.57 664.503L614.33 654.531Z" fill="#9C9CA1"/>
<path d="M677.17 560.9C681.68 560.441 686.25 559.664 690.31 557.477C695.31 554.755 699.2 550.064 703.83 546.609C714.01 538.955 727.63 537.927 739.3 542.322C750.97 546.718 760.71 556.133 767.53 567.373C772.06 574.863 775.46 584.42 772.26 592.686C771.162 595.213 769.778 597.579 768.14 599.728L759.8 611.646C758.216 614.152 756.309 616.394 754.14 618.305C751.02 620.787 747.14 621.804 743.32 622.417C733.17 624.035 722.84 623.116 712.61 623.86C695.04 625.139 677.88 631.328 660.27 631.12C650.15 631 640.16 628.77 630.27 626.539L586.5 616.698C578.88 614.992 570.27 612.499 566.68 604.944C565.07 601.543 564.77 597.607 564.58 593.78C564.06 583.239 564.58 571.517 571.26 563.918C577.54 556.789 587.47 554.536 594.97 549.266C604.15 542.804 607.18 544.892 616.86 549.747C635.745 559.098 656.523 562.941 677.17 560.9V560.9Z" fill="#AF8B92"/>
<path d="M852.94 545.909C840.66 551.103 828.31 556.318 815.45 559.413C793.89 564.607 771.33 563.787 749.94 569.724C738.64 572.873 727.41 577.947 715.8 576.919C710.61 576.46 705.6 574.732 700.55 573.42C672.18 565.766 639.93 568.248 616.89 587.93C609.01 594.654 602.56 603.041 596.71 611.985C595.458 613.917 594.612 616.128 594.232 618.458C593.852 620.789 593.948 623.183 594.513 625.469C595.078 627.755 596.097 629.876 597.499 631.681C598.9 633.486 600.649 634.93 602.62 635.91C611.58 640.415 621.178 643.214 631 644.187C644.13 645.455 657.32 643.421 670.38 641.388C689.76 638.381 709.15 635.363 728.48 631.984C735.42 630.77 742.36 629.513 749.34 628.551C799.57 621.607 850.71 630.049 901.07 624.254C906.16 623.663 911.34 622.898 915.97 620.525C927.69 614.511 933.49 598.656 931.07 584.726C928.65 570.795 919.31 559.216 908.07 552.109C898.65 546.128 888.49 543.711 878 541.174C868.26 538.692 862.32 541.973 852.94 545.909Z" fill="#C09DA4"/>
<path opacity="0.1" d="M960.67 462.633C966.21 470.571 967.39 481.221 966.79 491.161C966.19 501.1 964.03 510.93 963.71 520.913C963.27 534.603 966.29 548.249 965.78 561.895C965.42 571.441 963.35 580.8 960.9 589.963C958.01 600.778 953.83 612.401 944.7 617.595C932.58 624.494 907.16 620.612 894.41 626.014C895.57 618.108 906.69 606.66 907.85 598.755C908.65 593.287 909.46 587.667 908.6 582.189C907.5 575.202 903.75 569.002 899.3 563.841C892.22 555.63 882.98 549.452 872.83 547.44C862.68 545.428 837.83 547.079 829.71 554.088C828.71 546.849 847.31 539.873 853.85 538.31C857.11 537.511 860.85 537.96 863.46 535.696C868.46 531.41 864.83 522.87 865.07 516.014C865.26 510.547 868.18 505.539 868.77 500.072C869.77 491.325 864.55 482.413 866.6 473.83C867.36 470.659 869.05 467.87 870.22 464.852C873.78 455.613 872.22 445.072 870.32 435.253C869.14 429.086 867.99 422.132 871.13 416.873C874.04 411.963 882.3 429.447 887.59 428.638C905.06 425.959 920.87 411.799 934.98 423.389C942.17 429.294 943.11 435.417 945.98 443.848C948.77 451.873 956 455.985 960.67 462.633Z" fill="black"/>
<path d="M963.67 462.633C969.21 470.571 970.39 481.221 969.79 491.161C969.19 501.1 967.03 510.93 966.71 520.913C966.27 534.603 969.29 548.249 968.78 561.895C968.42 571.441 966.35 580.801 963.9 589.964C961.01 600.778 956.83 612.401 947.7 617.595C935.58 624.494 910.16 620.613 897.41 626.014C898.57 618.109 909.69 606.66 910.85 598.755C911.65 593.288 912.46 587.667 911.6 582.189C910.5 575.202 906.75 569.002 902.3 563.841C895.22 555.63 885.98 549.452 875.83 547.44C865.68 545.428 840.83 547.079 832.71 554.088C831.71 546.849 850.31 539.873 856.85 538.31C860.11 537.511 863.85 537.96 866.46 535.696C871.46 531.41 867.83 522.87 868.07 516.014C868.26 510.547 871.18 505.539 871.77 500.072C872.77 491.325 867.55 482.413 869.6 473.83C870.36 470.659 872.05 467.87 873.22 464.853C876.78 455.613 875.22 445.072 873.32 435.253C872.14 429.086 870.99 422.132 874.13 416.873C877.04 411.963 882.73 410.104 888.02 409.284C905.732 406.665 923.678 411.727 938.02 423.389C945.21 429.294 946.15 435.417 949.02 443.848C951.77 451.873 959 455.985 963.67 462.633Z" fill="#4C4981"/>
<path d="M302 410.826L356.37 630.541C357.037 633.233 358.438 635.639 360.388 637.438C362.337 639.237 364.741 640.344 367.28 640.611L612 666.318C613.994 666.528 616.006 666.213 617.866 665.398C619.726 664.584 621.381 663.294 622.691 661.636C624.001 659.979 624.929 658.002 625.397 655.871C625.865 653.741 625.859 651.519 625.38 649.392L565.84 384.365C565.131 381.214 563.424 378.441 561.022 376.537C558.62 374.633 555.678 373.722 552.72 373.966L313.13 393.56C311.29 393.717 309.505 394.315 307.901 395.312C306.297 396.31 304.915 397.682 303.852 399.331C302.789 400.98 302.071 402.865 301.751 404.852C301.431 406.839 301.516 408.879 302 410.826V410.826Z" fill="#9C9CA1"/>
<path d="M787.11 453.699C801.966 453.699 814.01 440.359 814.01 423.903C814.01 407.447 801.966 394.107 787.11 394.107C772.253 394.107 760.21 407.447 760.21 423.903C760.21 440.359 772.253 453.699 787.11 453.699Z" fill="white"/>
<path d="M809.2 369.549C809.2 369.549 814.87 387.984 798.14 395.736L796 399.826L806.48 411.132C806.48 411.132 819.4 385.36 818 376.208C818 376.208 816 366.913 809.2 369.549Z" fill="white"/>
<path d="M790.2 453.699C804.526 453.699 816.14 441.001 816.14 425.336C816.14 409.671 804.526 396.972 790.2 396.972C775.874 396.972 764.26 409.671 764.26 425.336C764.26 441.001 775.874 453.699 790.2 453.699Z" fill="#6C63FF"/>
<path d="M818.13 380.396L814.01 372.96L808.01 372.031C809.29 347.549 803.48 340.255 803.48 340.255L802.13 340.113L796.25 339.49L785.19 326.937V323.373C800.73 325.396 809.32 333.465 813.96 342.923C822.16 359.522 818.13 380.396 818.13 380.396Z" fill="#6C63FF"/>
<path opacity="0.1" d="M802.18 335.608V340.113L796.3 339.49L785.24 326.937C785.24 326.937 802.35 331.125 802.18 335.608Z" fill="black" stroke="#4C4981" stroke-miterlimit="10"/>
<path opacity="0.1" d="M818.13 380.395L814.01 372.96V342.967C822.16 359.522 818.13 380.395 818.13 380.395Z" fill="black" stroke="#4C4981" stroke-miterlimit="10"/>
<path d="M742.266 436.995C749.168 432.638 748.871 417.947 741.603 404.183C734.335 390.418 722.848 382.791 715.946 387.148C709.045 391.505 709.342 406.196 716.61 419.961C723.878 433.726 735.365 441.352 742.266 436.995Z" fill="white"/>
<path d="M733 409.667C740.27 423.433 749.19 432.629 742.29 437.003C735.39 441.376 715.29 439.19 708.02 425.412C700.75 411.635 707.35 392.609 714.25 388.235C721.15 383.862 725.72 395.868 733 409.667Z" fill="#6C63FF"/>
<path opacity="0.1" d="M797.73 310.492C797.73 354.481 770.2 396.874 729.97 396.874C710.649 396.874 692.119 388.481 678.457 373.543C664.795 358.604 657.12 338.343 657.12 317.217C657.12 296.09 664.795 275.829 678.457 260.891C692.119 245.952 710.649 237.56 729.97 237.56C770.2 237.604 797.73 266.492 797.73 310.492Z" fill="black"/>
<path d="M729.97 394.73C770.204 394.73 802.82 359.067 802.82 315.074C802.82 271.08 770.204 235.417 729.97 235.417C689.736 235.417 657.12 271.08 657.12 315.074C657.12 359.067 689.736 394.73 729.97 394.73Z" fill="#CEA9B0"/>
<path d="M723.57 279.778C732.24 283.266 737.37 293.063 745.15 298.519C756.15 306.173 770.47 304.194 783.03 300.411C790.03 298.322 797.35 295.775 804.24 298.093C805.253 298.583 806.371 298.757 807.47 298.596C808.97 298.125 809.71 296.31 810.2 294.692C818.72 266.919 814.89 235.461 802.03 209.765C798.71 203.139 794.73 196.731 789.25 192.128C784.93 188.508 779.85 186.136 774.73 184.113C765.373 180.438 755.695 177.826 745.85 176.317C744.111 175.971 742.335 175.909 740.58 176.131C738.17 176.557 736.01 177.979 733.86 179.247C724.652 184.644 714.44 187.677 704 188.115C690 188.694 674 185.086 663.21 194.905C650.21 206.681 653.45 229.654 645.02 245.64C639.44 256.214 628.68 263.89 626.91 275.929C626.449 279.608 626.663 283.351 627.54 286.94C631.66 305.462 648.06 319.808 665.54 320.147C668.224 320.371 670.912 319.769 673.3 318.409C674.864 317.241 676.245 315.805 677.39 314.155C688.84 299.328 701.94 271.074 723.57 279.778Z" fill="#444053"/>
<path opacity="0.1" d="M810.2 286.633C809.71 288.252 808.97 290.067 807.47 290.537C806.372 290.699 805.254 290.525 804.24 290.034C797.35 287.716 789.99 290.264 783.04 292.352C770.47 296.135 756.12 298.158 745.16 290.46C737.37 284.993 732.25 275.152 723.57 271.719C701.94 262.971 688.84 291.27 677.36 306.097C676.216 307.746 674.834 309.183 673.27 310.35C670.883 311.71 668.194 312.312 665.51 312.089C648.09 311.75 631.68 297.404 627.51 278.881C627.28 277.788 627.08 276.694 626.93 275.601C626.93 275.699 626.93 275.787 626.88 275.885C626.419 279.565 626.633 283.308 627.51 286.896C631.63 305.419 648.04 319.764 665.51 320.103C668.194 320.327 670.883 319.725 673.27 318.365C674.834 317.198 676.216 315.761 677.36 314.111C688.84 299.284 701.94 271.03 723.57 279.734C732.25 283.222 737.37 293.019 745.16 298.475C756.16 306.129 770.47 304.15 783.04 300.367C790.04 298.278 797.35 295.731 804.24 298.049C805.254 298.54 806.372 298.714 807.47 298.552C808.97 298.082 809.71 296.267 810.2 294.648C813.637 283.284 815.155 271.332 814.68 259.374C814.386 268.648 812.877 277.828 810.2 286.633V286.633Z" fill="black"/>
</g>
<defs>
<clipPath id="clip0">
<rect width="1144" height="675" fill="white"/>
</clipPath>
</defs>
</svg>
